<svg width="64" height="64" xmlns="http://www.w3.org/2000/svg">

 <g>
  <title>background</title>
  <rect fill="none" id="canvas_background" height="402" width="582" y="-1" x="-1"/>
 </g>
 <g>
  <title>Layer 1</title>
  <circle id="svg_8" r="26.5" fill="#FFFFFF" cy="32" cx="32"/>
  <path id="svg_13" fill="#079381" d="m58,32c0,-11.868 -7.996,-21.897 -18.881,-25.001c-1.657,-0.324 -3.367,-0.499 -5.119,-0.499c-14.635,0 -26.5,11.865 -26.5,26.5c0,7.773 3.348,14.765 8.679,19.612c4.386,3.375 9.872,5.388 15.821,5.388c14.337,0 26,-11.663 26,-26z"/>
  <path id="svg_17" fill="#079381" d="m42.852,7.825c8.138,4.524 13.648,13.204 13.648,23.175c0,14.635 -11.865,26.5 -26.5,26.5c-3.868,0 -7.539,-0.836 -10.852,-2.325c3.807,2.116 8.188,3.325 12.852,3.325c14.635,0 26.5,-11.865 26.5,-26.5c0,-10.767 -6.426,-20.027 -15.648,-24.175z"/>
  <path id="svg_21" fill="#37474F" d="m32,59c-14.888,0 -27,-12.112 -27,-27s12.112,-27 27,-27s27,12.112 27,27s-12.112,27 -27,27zm0,-53c-14.337,0 -26,11.663 -26,26s11.663,26 26,26s26,-11.663 26,-26s-11.663,-26 -26,-26z"/>
  <circle id="svg_26" r="22.5" fill="#00cdb4" cy="32" cx="32"/>
  <path id="svg_30" fill="#036356" d="m11.5,33c0,-12.426 10.074,-22.5 22.5,-22.5c3.212,0 6.265,0.678 9.029,1.892c-3.259,-1.838 -7.02,-2.892 -11.029,-2.892c-12.426,0 -22.5,10.074 -22.5,22.5c0,9.214 5.541,17.129 13.471,20.608c-6.845,-3.858 -11.471,-11.191 -11.471,-19.608z"/>
  <path id="svg_34" fill="#079381" d="m41.029,11.392c6.845,3.858 11.471,11.191 11.471,19.608c0,12.426 -10.074,22.5 -22.5,22.5c-3.212,0 -6.265,-0.678 -9.029,-1.892c3.259,1.838 7.02,2.892 11.029,2.892c12.426,0 22.5,-10.074 22.5,-22.5c0,-9.214 -5.541,-17.129 -13.471,-20.608z"/>
  <path id="svg_38" fill="#37474F" d="m32,55c-12.683,0 -23,-10.317 -23,-23s10.317,-23 23,-23s23,10.317 23,23s-10.317,23 -23,23zm0,-45c-12.131,0 -22,9.869 -22,22s9.869,22 22,22s22,-9.869 22,-22s-9.869,-22 -22,-22z"/>
  <path id="svg_43" fill="#FFFFFF" d="m34.525,17.63c-1.996,1.173 -3.179,3.29 -3.179,5.523c0,1.172 0.472,2.353 1.061,3.407c0.472,0.941 0.702,2.585 -0.941,3.407c-1.172,0.703 -2.706,0.235 -3.409,-0.94c-0.701,-0.942 -1.523,-1.883 -2.584,-2.585c-1.996,-1.174 -4.351,-1.174 -6.347,0c-1.996,1.172 -3.174,3.295 -3.174,5.527c0,2.234 1.173,4.35 3.174,5.526c1.996,1.172 4.351,1.172 6.346,0c1.061,-0.59 1.883,-1.525 2.467,-2.586c0.471,-0.823 1.765,-1.883 3.408,-0.941c1.173,0.701 1.525,2.236 0.942,3.408c-0.59,1.06 -0.942,2.235 -0.942,3.408c0,2.235 1.173,4.35 3.178,5.521c1.996,1.174 4.351,1.174 6.346,0c1.996,-1.172 3.178,-3.289 3.178,-5.521s-1.176,-4.35 -3.177,-5.525c-1.061,-0.59 -2.237,-0.823 -3.527,-0.823c-1.061,0 -2.467,-0.701 -2.467,-2.467c0,-1.411 1.061,-2.466 2.467,-2.466c1.173,0 2.467,-0.234 3.527,-0.823c1.995,-1.172 3.177,-3.29 3.177,-5.521c0,-2.232 -1.176,-4.351 -3.177,-5.522c-0.941,-0.59 -2.115,-0.823 -3.175,-0.823c-1.054,-0.006 -2.236,0.233 -3.172,0.816l0,0z"/>
  <path id="svg_47" fill="#bbf7ef" d="m43.548,41.785c0,-2.08 -1.123,-4.032 -2.93,-5.095c-0.91,-0.505 -1.984,-0.754 -3.274,-0.754c-1.475,0 -2.967,-1.02 -2.967,-2.967c0,-1.69 1.275,-2.966 2.967,-2.966c1.235,0 2.401,-0.271 3.284,-0.761c1.797,-1.055 2.92,-3.006 2.92,-5.084c0,-2.082 -1.122,-4.033 -2.93,-5.091c-0.781,-0.489 -1.814,-0.755 -2.922,-0.755c0,0 0,0 -0.001,0c-1.104,0 -2.15,0.271 -2.905,0.741c-1.82,1.069 -2.943,3.021 -2.943,5.099c0,0.927 0.326,1.962 0.997,3.163c0.337,0.672 0.472,1.416 0.381,2.063c-0.087,0.622 -0.425,1.48 -1.535,2.036c-0.404,0.244 -0.908,0.383 -1.423,0.383c-1.069,0 -2.08,-0.58 -2.639,-1.514c-0.823,-1.102 -1.581,-1.862 -2.432,-2.425c-1.761,-1.034 -4.013,-1.046 -5.816,0.014c-1.807,1.061 -2.928,3.014 -2.928,5.097c0,2.081 1.122,4.033 2.928,5.096c1.806,1.059 4.035,1.059 5.839,0c0.911,-0.508 1.696,-1.334 2.282,-2.396c0.416,-0.728 1.333,-1.569 2.563,-1.569c0.512,0 1.026,0.146 1.53,0.436c1.371,0.819 1.869,2.603 1.142,4.064c-0.586,1.054 -0.89,2.148 -0.89,3.186c0,2.083 1.123,4.033 2.93,5.09c1.81,1.063 4.038,1.061 5.84,0.001c1.809,-1.063 2.932,-3.014 2.932,-5.092z"/>
  <path id="svg_51" fill="#37474F" d="m37.697,47.687c-1.186,0 -2.37,-0.328 -3.427,-0.949c-2.111,-1.234 -3.424,-3.515 -3.424,-5.952c0,-1.207 0.348,-2.47 1.006,-3.651c0.477,-0.96 0.14,-2.196 -0.763,-2.736c-0.343,-0.196 -0.69,-0.298 -1.025,-0.298c-0.857,0 -1.467,0.665 -1.692,1.059c-0.671,1.221 -1.592,2.183 -2.657,2.774c-2.092,1.229 -4.73,1.233 -6.842,-0.005c-2.11,-1.241 -3.421,-3.524 -3.421,-5.958c0,-2.437 1.311,-4.72 3.421,-5.959s4.739,-1.241 6.854,0.001c1.255,0.83 2.158,1.947 2.731,2.717c0.599,0.993 1.853,1.348 2.751,0.811c0.613,-0.309 0.946,-0.739 1.025,-1.3c0.09,-0.639 -0.162,-1.23 -0.274,-1.455c-0.746,-1.335 -1.113,-2.528 -1.113,-3.631c0,-2.432 1.313,-4.713 3.426,-5.954c0.912,-0.569 2.118,-0.886 3.386,-0.886c1.331,0 2.553,0.319 3.479,0.899c2.099,1.229 3.411,3.511 3.411,5.946c0,2.432 -1.312,4.712 -3.424,5.952c-1.039,0.578 -2.378,0.893 -3.78,0.893c-1.14,0 -1.967,0.827 -1.967,1.966c0,1.556 1.286,1.967 1.967,1.967c1.465,0 2.698,0.29 3.771,0.887c2.122,1.246 3.434,3.528 3.434,5.962c0,2.432 -1.313,4.713 -3.425,5.953c-1.057,0.618 -2.242,0.947 -3.428,0.947zm-7.633,-14.587c0.512,0 1.026,0.146 1.53,0.436c1.371,0.819 1.869,2.603 1.142,4.064c-0.586,1.054 -0.89,2.148 -0.89,3.186c0,2.083 1.123,4.033 2.93,5.09c1.81,1.063 4.038,1.061 5.84,0.001c1.809,-1.062 2.932,-3.013 2.932,-5.091c0,-2.08 -1.123,-4.032 -2.93,-5.095c-0.91,-0.505 -1.984,-0.754 -3.274,-0.754c-1.475,0 -2.967,-1.02 -2.967,-2.967c0,-1.69 1.275,-2.966 2.967,-2.966c1.235,0 2.401,-0.271 3.284,-0.761c1.797,-1.055 2.92,-3.006 2.92,-5.084c0,-2.082 -1.122,-4.033 -2.93,-5.091c-0.781,-0.489 -1.814,-0.755 -2.922,-0.755c0,0 0,0 -0.001,0c-1.104,0 -2.15,0.271 -2.905,0.741c-1.82,1.069 -2.943,3.021 -2.943,5.099c0,0.927 0.326,1.962 0.997,3.163c0.337,0.672 0.472,1.416 0.381,2.063c-0.087,0.622 -0.425,1.48 -1.535,2.036c-0.404,0.244 -0.908,0.383 -1.423,0.383c-1.069,0 -2.08,-0.58 -2.639,-1.514c-0.823,-1.102 -1.581,-1.862 -2.432,-2.425c-1.761,-1.034 -4.013,-1.046 -5.816,0.014c-1.807,1.061 -2.928,3.014 -2.928,5.097c0,2.081 1.122,4.033 2.928,5.096c1.806,1.059 4.035,1.059 5.839,0c0.911,-0.508 1.696,-1.334 2.282,-2.396c0.416,-0.729 1.333,-1.57 2.563,-1.57z"/>
 </g>
</svg>