<svg width="24" height="24" xmlns="http://www.w3.org/2000/svg">

 <g>
  <title>background</title>
  <rect fill="none" id="canvas_background" height="402" width="582" y="-1" x="-1"/>
 </g>
 <g>
  <title>Layer 1</title>
  <path opacity="0.2" fill="#FFFFFF" id="XMLID_1633_" d="m7,21.5l0,-13.5c0,-3.715 2.704,-6.791 6.25,-7.388c-0.407,-0.068 -0.823,-0.112 -1.25,-0.112c-4.142,0 -7.5,3.358 -7.5,7.5l0,13.5l-1,0l0,2l2.5,0l0,-2l1,0z"/>
  <path fill="#303C42" id="XMLID_1382_" d="m8.5,9l-1,0c-0.276,0 -0.5,0.224 -0.5,0.5l0,4c0,0.276 0.224,0.5 0.5,0.5s0.5,-0.224 0.5,-0.5l0,-1.5l0.5,0c0.275,0 0.5,0.224 0.5,0.5l0,1c0,0.276 0.224,0.5 0.5,0.5s0.5,-0.224 0.5,-0.5l0,-1c0,-0.384 -0.145,-0.734 -0.383,-1c0.238,-0.266 0.383,-0.616 0.383,-1c0,-0.827 -0.673,-1.5 -1.5,-1.5zm0,2l-0.5,0l0,-1l0.5,0c0.275,0 0.5,0.224 0.5,0.5s-0.225,0.5 -0.5,0.5z"/>
  <path fill="#303C42" id="XMLID_1590_" d="m17,10.5c0,-0.827 -0.673,-1.5 -1.5,-1.5l-1,0c-0.276,0 -0.5,0.224 -0.5,0.5l0,4c0,0.276 0.224,0.5 0.5,0.5s0.5,-0.224 0.5,-0.5l0,-1.5l0.5,0c0.827,0 1.5,-0.673 1.5,-1.5zm-2,-0.5l0.5,0c0.275,0 0.5,0.224 0.5,0.5s-0.225,0.5 -0.5,0.5l-0.5,0l0,-1z"/>
  <path fill="#303C42" id="XMLID_1591_" d="m12,9c-0.276,0 -0.5,0.224 -0.5,0.5l0,4c0,0.276 0.224,0.5 0.5,0.5s0.5,-0.224 0.5,-0.5l0,-4c0,-0.276 -0.224,-0.5 -0.5,-0.5z"/>
  <path fill="#303C42" id="XMLID_1594_" d="m20.5,21l-0.5,0l0,-13c0,-4.411 -3.589,-8 -8,-8c-2.783,0 -5.237,1.431 -6.67,3.594c-0.017,0.019 -0.025,0.042 -0.039,0.064c-0.813,1.251 -1.291,2.741 -1.291,4.342l0,13l-0.5,0c-0.276,0 -0.5,0.224 -0.5,0.5l0,2c0,0.276 0.224,0.5 0.5,0.5l17,0c0.276,0 0.5,-0.224 0.5,-0.5l0,-2c0,-0.276 -0.224,-0.5 -0.5,-0.5zm-15.5,-13c0,-1.076 0.251,-2.092 0.687,-3.003l0.367,0.729c0.085,0.168 0.258,0.274 0.446,0.274l1.609,0l0.405,1.621c0.057,0.228 0.261,0.379 0.486,0.379c0.04,0 0.081,-0.005 0.121,-0.015c0.269,-0.067 0.431,-0.338 0.364,-0.606l-0.5,-2c-0.055,-0.223 -0.256,-0.379 -0.485,-0.379l-1.692,0l-0.52,-1.032c1.269,-1.792 3.354,-2.968 5.712,-2.968c3.859,0 7,3.14 7,7l0,6.191l-1.724,0.862c-0.138,0.069 -0.236,0.198 -0.267,0.349l-0.459,2.297l-1.328,0.885c-0.229,0.153 -0.292,0.463 -0.139,0.693c0.097,0.145 0.255,0.223 0.416,0.223c0.096,0 0.192,-0.027 0.277,-0.084l1.5,-1c0.11,-0.074 0.187,-0.188 0.213,-0.318l0.452,-2.26l1.059,-0.529l0,5.691l-14,0l0,-13zm15,15l-16,0l0,-1l16,0l0,1z"/>
  <rect stroke="null" id="svg_1" height="1.115044" width="16.088494" y="21.898506" x="3.955752" stroke-opacity="null" stroke-width="null" fill="#00cdb4"/>
 </g>
</svg>