<?xml version="1.0" encoding="utf-8"?>
<!-- Generator: Adobe Illustrator 20.0.0, SVG Export Plug-In . SVG Version: 6.00 Build 0)  -->
<svg version="1.1" id="Layer_1" xmlns="http://www.w3.org/2000/svg" xmlns:xlink="http://www.w3.org/1999/xlink" x="0px" y="0px"
	 viewBox="0 0 529.5 258.3" style="enable-background:new 0 0 529.5 258.3;" xml:space="preserve">
<style type="text/css">
	.st0{fill:#00CDB4;}
</style>
<path class="st0" d="M467.2,111.3c-6.4,0-5.3-2.3-19.1-2.3c-11.6,0-22.9,5.3-29.8,11.5c0-21.6,18.3-47.4,48.9-47.4
	c12.1,0,19.1,10.1,19.1,19.1C486.4,102.7,477.8,111.3,467.2,111.3z"/>
<path class="st0" d="M491.2,67.4c0,10,6.6,11,6.6,24.7c0.1,10.6-5.4,20.5-14.4,26c18,0,46.1-16.6,46.1-50.7
	c0-10.6-8.5-19.1-19.1-19.1C499.8,48.3,491.2,56.8,491.2,67.4C491.2,67.4,491.2,67.4,491.2,67.4L491.2,67.4z"/>
<path class="st0" d="M483.4,0c-10.1,0-18.4,7.8-19.1,17.9c0,0.4,0,0.9,0,1.3s0,0.9,0,1.3c-0.3,12.3-5.2,24-13.8,32.8
	c-0.8,0.7-1.5,1.4-2.2,2.1c-3.6,3.7-6.6,8-8.9,12.6c6.1-3.2,12.7-5.3,19.5-6.2c0.7-0.1,1.5-0.2,2.2-0.3
	c19.9-2.8,36.1-17.6,40.8-37.2c0.2-0.9,0.4-1.7,0.5-2.6c1.4-10.5-5.9-20.2-16.5-21.6C485.1,0.1,484.2,0,483.4,0L483.4,0z"/>
<path class="st0" d="M37,162.9c9-13.5,22-21,38-21.2v33.4c-22-1.9-36,8.1-38,24.4v57.1H0v-116h37V162.9z"/>
<path class="st0" d="M119.4,111.2c0,11.6-8.1,19.7-19.5,19.7s-19.4-8.1-19.4-19.7c0-11.3,8.1-19.4,19.4-19.4S119.4,99.9,119.4,111.2
	z"/>
<rect x="83" y="140.6" class="st0" width="37" height="116"/>
<path class="st0" d="M255.1,199.9c0,35.1-20.2,58.4-52.5,58.4c-15,0-25.6-6-34.6-16.7v15h-38v-165h38V157
	c9-10.5,19.2-16.5,33.7-16.5C234.2,140.5,255.1,164.2,255.1,199.9z M217.9,198.9c0-17.5-10.5-29.9-25.9-29.9
	c-15,0-25.4,12.4-25.4,29.9c0,18,10.5,30.1,25.4,30.1C207.4,229,217.9,216.6,217.9,198.9L217.9,198.9z"/>
<path class="st0" d="M359.8,199.3c0,35.5-25.2,59-62.9,59c-37.8,0-63.1-23.5-63.1-59s25.2-58.8,63.1-58.8
	C334.5,140.5,359.8,163.8,359.8,199.3z M271,199.7c0,18,10.5,29.9,25.9,29.9c15.2,0,25.7-12,25.7-29.9c0-17.8-10.5-29.9-25.7-29.9
	C281.5,169.8,271,182,271,199.7L271,199.7z"/>
<path class="st0" d="M485,184.3v72.3h-35v-62c0-13.5-8-21.8-20.4-21.8c-13.5,0-22.6,9.6-23.6,23.3v60.5h-38v-116h38v20
	c8-13.5,20.6-20.3,37.7-20.5C469.1,140.1,485,157.4,485,184.3z"/>
</svg>
